<?xml version="1.0" encoding="UTF-8"?>
<svg width="1536px" height="240px" viewBox="0 0 1536 240" version="1.1" xmlns="http://www.w3.org/2000/svg" xmlns:xlink="http://www.w3.org/1999/xlink">
    <!-- Generator: Sketch 52.2 (67145) - http://www.bohemiancoding.com/sketch -->
    <title>Logo_white_highres</title>
    <desc>Created with Sketch.</desc>
    <g id="Logo_white_highres" stroke="none" stroke-width="1" fill="none" fill-rule="evenodd">
        <g id="Logo-blk-bckgrnd" fill="#FFFFFF">
            <g id="Logo">
                <polygon id="Fill-1" points="154.92618 0 154.92618 94.2735769 48.1387325 94.2735769 48.1387325 0 0 0 0 240 48.1387325 240 48.1387325 139.249338 154.92618 139.249338 154.92618 240 203.407711 240 203.407711 0"></polygon>
                <polygon id="Fill-2" points="339.791008 0 339.791008 240 497.997005 240 497.997005 195.743915 387.385396 195.743915 387.385396 139.973012 495.650619 139.973012 495.650619 96.0727673 387.385396 96.0727673 387.385396 43.9002449 497.997005 43.9002449 497.997005 0"></polygon>
                <polygon id="Fill-3" points="634.380302 0 634.380302 240 769.985442 240 769.985442 195.020241 679.794057 195.020241 679.794057 0"></polygon>
                <polygon id="Fill-6" points="1172.92153 240 1218.12324 240 1218.12324 0 1172.92153 0"></polygon>
                <path d="M978.298568,196.460319 C995.859648,196.460319 1006.26621,185.305524 1006.26621,168.037582 C1006.26621,152.920637 996.510058,139.97068 978.298568,139.97068 L918.789633,139.97068 L918.789633,196.460319 L978.298568,196.460319 Z M976.672542,96.4309989 C992.282391,96.4309989 1002.03855,85.2762044 1002.03855,69.8034251 C1002.03855,55.054308 992.282391,43.5396815 976.672542,43.5396815 L918.789633,43.5396815 L918.789633,96.4309989 L976.672542,96.4309989 Z M872.610497,0 L986.753903,0 C1028.05496,0 1049.18968,29.1424002 1049.18968,61.1674552 C1049.18968,91.3933498 1032.27901,111.543946 1011.7947,116.221763 C1034.88427,120.179916 1053.41735,145.008329 1053.41735,175.230226 C1053.41735,211.213434 1031.6286,240 990.33116,240 L872.610497,240 L872.610497,0 Z" id="Fill-4"></path>
                <polygon id="Fill-8" points="1354.50654 198.619311 1466.62197 44.9750117 1354.50654 44.9750117 1354.50654 0 1532.82185 0 1532.82185 41.0208569 1420.70641 195.02099 1535.31339 195.02099 1535.31339 240 1354.50654 240"></polygon>
            </g>
        </g>
    </g>
</svg>